<mxfile host="app.diagrams.net" modified="2023-06-01T00:45:35.873Z" agent="Mozilla/5.0 (Windows NT 10.0; Win64; x64) AppleWebKit/537.36 (KHTML, like Gecko) Chrome/113.0.0.0 Safari/537.36" etag="fqnpG0R1rz0TeuT1_HqC" version="21.3.5" type="device">
  <diagram name="페이지-1" id="v8gAP7SF7ii9CqW_IZV0">
    <mxGraphModel dx="1434" dy="756" grid="1" gridSize="10" guides="1" tooltips="1" connect="1" arrows="1" fold="1" page="1" pageScale="1" pageWidth="4681" pageHeight="3300" math="0" shadow="0">
      <root>
        <mxCell id="0" />
        <mxCell id="1" parent="0" />
        <mxCell id="AGN22Ck_plt4T5X-b5eW-6" style="edgeStyle=orthogonalEdgeStyle;rounded=0;sketch=1;hachureGap=4;jiggle=2;curveFitting=1;orthogonalLoop=1;jettySize=auto;html=1;fontFamily=Architects Daughter;fontSource=https%3A%2F%2Ffonts.googleapis.com%2Fcss%3Ffamily%3DArchitects%2BDaughter;fontSize=16;" edge="1" parent="1" source="AGN22Ck_plt4T5X-b5eW-1" target="AGN22Ck_plt4T5X-b5eW-4">
          <mxGeometry relative="1" as="geometry" />
        </mxCell>
        <mxCell id="AGN22Ck_plt4T5X-b5eW-1" value="유저" style="shape=umlActor;verticalLabelPosition=bottom;verticalAlign=top;html=1;outlineConnect=0;hachureGap=4;fontFamily=Architects Daughter;fontSource=https%3A%2F%2Ffonts.googleapis.com%2Fcss%3Ffamily%3DArchitects%2BDaughter;fontSize=20;sketch=1;curveFitting=1;jiggle=2;" vertex="1" parent="1">
          <mxGeometry x="195" y="190" width="60" height="100" as="geometry" />
        </mxCell>
        <mxCell id="AGN22Ck_plt4T5X-b5eW-11" style="rounded=0;sketch=1;hachureGap=4;jiggle=2;curveFitting=1;orthogonalLoop=1;jettySize=auto;html=1;fontFamily=Architects Daughter;fontSource=https%3A%2F%2Ffonts.googleapis.com%2Fcss%3Ffamily%3DArchitects%2BDaughter;fontSize=16;entryX=0.5;entryY=0;entryDx=0;entryDy=0;" edge="1" parent="1" source="AGN22Ck_plt4T5X-b5eW-4" target="AGN22Ck_plt4T5X-b5eW-7">
          <mxGeometry relative="1" as="geometry" />
        </mxCell>
        <mxCell id="AGN22Ck_plt4T5X-b5eW-12" style="rounded=0;sketch=1;hachureGap=4;jiggle=2;curveFitting=1;orthogonalLoop=1;jettySize=auto;html=1;fontFamily=Architects Daughter;fontSource=https%3A%2F%2Ffonts.googleapis.com%2Fcss%3Ffamily%3DArchitects%2BDaughter;fontSize=16;entryX=0.5;entryY=0;entryDx=0;entryDy=0;" edge="1" parent="1" source="AGN22Ck_plt4T5X-b5eW-4" target="AGN22Ck_plt4T5X-b5eW-9">
          <mxGeometry relative="1" as="geometry" />
        </mxCell>
        <mxCell id="AGN22Ck_plt4T5X-b5eW-14" style="rounded=0;sketch=1;hachureGap=4;jiggle=2;curveFitting=1;orthogonalLoop=1;jettySize=auto;html=1;fontFamily=Architects Daughter;fontSource=https%3A%2F%2Ffonts.googleapis.com%2Fcss%3Ffamily%3DArchitects%2BDaughter;fontSize=16;exitX=0.5;exitY=1;exitDx=0;exitDy=0;" edge="1" parent="1" source="AGN22Ck_plt4T5X-b5eW-4" target="AGN22Ck_plt4T5X-b5eW-10">
          <mxGeometry relative="1" as="geometry" />
        </mxCell>
        <mxCell id="AGN22Ck_plt4T5X-b5eW-25" style="edgeStyle=orthogonalEdgeStyle;rounded=0;sketch=1;hachureGap=4;jiggle=2;curveFitting=1;orthogonalLoop=1;jettySize=auto;html=1;fontFamily=Architects Daughter;fontSource=https%3A%2F%2Ffonts.googleapis.com%2Fcss%3Ffamily%3DArchitects%2BDaughter;fontSize=16;" edge="1" parent="1" source="AGN22Ck_plt4T5X-b5eW-4" target="AGN22Ck_plt4T5X-b5eW-24">
          <mxGeometry relative="1" as="geometry" />
        </mxCell>
        <mxCell id="AGN22Ck_plt4T5X-b5eW-4" value="로그인하기" style="ellipse;whiteSpace=wrap;html=1;hachureGap=4;fontFamily=Architects Daughter;fontSource=https%3A%2F%2Ffonts.googleapis.com%2Fcss%3Ffamily%3DArchitects%2BDaughter;fontSize=20;sketch=1;curveFitting=1;jiggle=2;" vertex="1" parent="1">
          <mxGeometry x="360" y="200" width="170" height="80" as="geometry" />
        </mxCell>
        <mxCell id="AGN22Ck_plt4T5X-b5eW-18" style="edgeStyle=orthogonalEdgeStyle;rounded=0;sketch=1;hachureGap=4;jiggle=2;curveFitting=1;orthogonalLoop=1;jettySize=auto;html=1;entryX=0.5;entryY=0;entryDx=0;entryDy=0;fontFamily=Architects Daughter;fontSource=https%3A%2F%2Ffonts.googleapis.com%2Fcss%3Ffamily%3DArchitects%2BDaughter;fontSize=16;" edge="1" parent="1" source="AGN22Ck_plt4T5X-b5eW-7" target="AGN22Ck_plt4T5X-b5eW-16">
          <mxGeometry relative="1" as="geometry" />
        </mxCell>
        <mxCell id="AGN22Ck_plt4T5X-b5eW-7" value="회원가입하기" style="ellipse;whiteSpace=wrap;html=1;sketch=1;hachureGap=4;jiggle=2;curveFitting=1;fontFamily=Architects Daughter;fontSource=https%3A%2F%2Ffonts.googleapis.com%2Fcss%3Ffamily%3DArchitects%2BDaughter;fontSize=20;" vertex="1" parent="1">
          <mxGeometry x="140" y="350" width="170" height="80" as="geometry" />
        </mxCell>
        <mxCell id="AGN22Ck_plt4T5X-b5eW-13" style="rounded=0;sketch=1;hachureGap=4;jiggle=2;curveFitting=1;orthogonalLoop=1;jettySize=auto;html=1;fontFamily=Architects Daughter;fontSource=https%3A%2F%2Ffonts.googleapis.com%2Fcss%3Ffamily%3DArchitects%2BDaughter;fontSize=16;exitX=0.5;exitY=1;exitDx=0;exitDy=0;" edge="1" parent="1" source="AGN22Ck_plt4T5X-b5eW-9" target="AGN22Ck_plt4T5X-b5eW-10">
          <mxGeometry relative="1" as="geometry" />
        </mxCell>
        <mxCell id="AGN22Ck_plt4T5X-b5eW-27" style="edgeStyle=orthogonalEdgeStyle;rounded=0;sketch=1;hachureGap=4;jiggle=2;curveFitting=1;orthogonalLoop=1;jettySize=auto;html=1;fontFamily=Architects Daughter;fontSource=https%3A%2F%2Ffonts.googleapis.com%2Fcss%3Ffamily%3DArchitects%2BDaughter;fontSize=16;" edge="1" parent="1" source="AGN22Ck_plt4T5X-b5eW-9" target="AGN22Ck_plt4T5X-b5eW-21">
          <mxGeometry relative="1" as="geometry" />
        </mxCell>
        <mxCell id="AGN22Ck_plt4T5X-b5eW-9" value="아이디찾기" style="ellipse;whiteSpace=wrap;html=1;sketch=1;hachureGap=4;jiggle=2;curveFitting=1;fontFamily=Architects Daughter;fontSource=https%3A%2F%2Ffonts.googleapis.com%2Fcss%3Ffamily%3DArchitects%2BDaughter;fontSize=20;" vertex="1" parent="1">
          <mxGeometry x="530" y="350" width="170" height="80" as="geometry" />
        </mxCell>
        <mxCell id="AGN22Ck_plt4T5X-b5eW-28" style="edgeStyle=orthogonalEdgeStyle;rounded=0;sketch=1;hachureGap=4;jiggle=2;curveFitting=1;orthogonalLoop=1;jettySize=auto;html=1;entryX=0;entryY=0.5;entryDx=0;entryDy=0;fontFamily=Architects Daughter;fontSource=https%3A%2F%2Ffonts.googleapis.com%2Fcss%3Ffamily%3DArchitects%2BDaughter;fontSize=16;" edge="1" parent="1" source="AGN22Ck_plt4T5X-b5eW-10" target="AGN22Ck_plt4T5X-b5eW-21">
          <mxGeometry relative="1" as="geometry">
            <Array as="points">
              <mxPoint x="760" y="530" />
              <mxPoint x="760" y="390" />
            </Array>
          </mxGeometry>
        </mxCell>
        <mxCell id="AGN22Ck_plt4T5X-b5eW-10" value="비밀번호찾기" style="ellipse;whiteSpace=wrap;html=1;sketch=1;hachureGap=4;jiggle=2;curveFitting=1;fontFamily=Architects Daughter;fontSource=https%3A%2F%2Ffonts.googleapis.com%2Fcss%3Ffamily%3DArchitects%2BDaughter;fontSize=20;" vertex="1" parent="1">
          <mxGeometry x="360" y="490" width="170" height="80" as="geometry" />
        </mxCell>
        <mxCell id="AGN22Ck_plt4T5X-b5eW-20" style="edgeStyle=orthogonalEdgeStyle;rounded=0;sketch=1;hachureGap=4;jiggle=2;curveFitting=1;orthogonalLoop=1;jettySize=auto;html=1;fontFamily=Architects Daughter;fontSource=https%3A%2F%2Ffonts.googleapis.com%2Fcss%3Ffamily%3DArchitects%2BDaughter;fontSize=16;" edge="1" parent="1" source="AGN22Ck_plt4T5X-b5eW-16" target="AGN22Ck_plt4T5X-b5eW-19">
          <mxGeometry relative="1" as="geometry" />
        </mxCell>
        <mxCell id="AGN22Ck_plt4T5X-b5eW-16" value="유효성검사하기" style="ellipse;whiteSpace=wrap;html=1;sketch=1;hachureGap=4;jiggle=2;curveFitting=1;fontFamily=Architects Daughter;fontSource=https%3A%2F%2Ffonts.googleapis.com%2Fcss%3Ffamily%3DArchitects%2BDaughter;fontSize=20;" vertex="1" parent="1">
          <mxGeometry x="140" y="620" width="170" height="80" as="geometry" />
        </mxCell>
        <mxCell id="AGN22Ck_plt4T5X-b5eW-17" value="&lt;h1&gt;유효성검사&lt;/h1&gt;&lt;p&gt;이메일 중복검사&lt;/p&gt;&lt;p&gt;이메일 형식검사&lt;/p&gt;&lt;p&gt;비밀번호 적합성 검사&lt;/p&gt;" style="text;html=1;strokeColor=none;fillColor=none;spacing=5;spacingTop=-20;whiteSpace=wrap;overflow=hidden;rounded=0;fontSize=20;fontFamily=Architects Daughter;" vertex="1" parent="1">
          <mxGeometry x="120" y="730" width="210" height="220" as="geometry" />
        </mxCell>
        <mxCell id="AGN22Ck_plt4T5X-b5eW-22" style="edgeStyle=orthogonalEdgeStyle;rounded=0;sketch=1;hachureGap=4;jiggle=2;curveFitting=1;orthogonalLoop=1;jettySize=auto;html=1;entryX=0;entryY=0.5;entryDx=0;entryDy=0;fontFamily=Architects Daughter;fontSource=https%3A%2F%2Ffonts.googleapis.com%2Fcss%3Ffamily%3DArchitects%2BDaughter;fontSize=16;" edge="1" parent="1" source="AGN22Ck_plt4T5X-b5eW-19" target="AGN22Ck_plt4T5X-b5eW-21">
          <mxGeometry relative="1" as="geometry">
            <Array as="points">
              <mxPoint x="760" y="660" />
              <mxPoint x="760" y="390" />
            </Array>
          </mxGeometry>
        </mxCell>
        <mxCell id="AGN22Ck_plt4T5X-b5eW-19" value="회원정보 저장하기" style="ellipse;whiteSpace=wrap;html=1;sketch=1;hachureGap=4;jiggle=2;curveFitting=1;fontFamily=Architects Daughter;fontSource=https%3A%2F%2Ffonts.googleapis.com%2Fcss%3Ffamily%3DArchitects%2BDaughter;fontSize=20;" vertex="1" parent="1">
          <mxGeometry x="470" y="620" width="180" height="80" as="geometry" />
        </mxCell>
        <mxCell id="AGN22Ck_plt4T5X-b5eW-21" value="회원정보 Table" style="shape=internalStorage;whiteSpace=wrap;html=1;backgroundOutline=1;sketch=1;hachureGap=4;jiggle=2;curveFitting=1;fontFamily=Architects Daughter;fontSource=https%3A%2F%2Ffonts.googleapis.com%2Fcss%3Ffamily%3DArchitects%2BDaughter;fontSize=20;" vertex="1" parent="1">
          <mxGeometry x="820" y="353.75" width="220" height="72.5" as="geometry" />
        </mxCell>
        <mxCell id="AGN22Ck_plt4T5X-b5eW-26" style="edgeStyle=orthogonalEdgeStyle;rounded=0;sketch=1;hachureGap=4;jiggle=2;curveFitting=1;orthogonalLoop=1;jettySize=auto;html=1;fontFamily=Architects Daughter;fontSource=https%3A%2F%2Ffonts.googleapis.com%2Fcss%3Ffamily%3DArchitects%2BDaughter;fontSize=16;" edge="1" parent="1" source="AGN22Ck_plt4T5X-b5eW-24" target="AGN22Ck_plt4T5X-b5eW-21">
          <mxGeometry relative="1" as="geometry" />
        </mxCell>
        <mxCell id="AGN22Ck_plt4T5X-b5eW-24" value="회원정보 조회&lt;br&gt;로그인 승인하기" style="ellipse;whiteSpace=wrap;html=1;hachureGap=4;fontFamily=Architects Daughter;fontSource=https%3A%2F%2Ffonts.googleapis.com%2Fcss%3Ffamily%3DArchitects%2BDaughter;fontSize=20;sketch=1;curveFitting=1;jiggle=2;" vertex="1" parent="1">
          <mxGeometry x="600" y="200" width="170" height="80" as="geometry" />
        </mxCell>
      </root>
    </mxGraphModel>
  </diagram>
</mxfile>
